<svg width="57" height="24" viewBox="0 0 57 24" fill="none" xmlns="http://www.w3.org/2000/svg">
<path d="M0.484131 2.14258C0.484131 1.84948 0.720372 1.61133 1.01113 1.61133H11.1877C13.2049 1.61133 14.7314 2.10594 15.7854 3.11349C16.8394 4.12104 17.3664 5.56824 17.3664 7.43678C17.3664 8.5176 17.1665 9.45187 16.7667 10.2396C16.5123 10.7525 16.1852 11.1922 15.7854 11.5586C15.5309 11.7967 15.5673 12.2364 15.8762 12.4012C16.4941 12.7493 16.9847 13.1706 17.33 13.6836C17.8207 14.398 18.0751 15.4056 18.0751 16.6879C18.0751 18.7213 17.5117 20.2784 16.385 21.3409C15.2584 22.4034 13.6228 22.953 11.5148 22.953H1.02931C0.738546 22.953 0.502304 22.7148 0.502304 22.4217V2.14258H0.484131ZM9.67941 10.2945C11.3513 10.2945 12.1872 9.50683 12.1872 7.91307C12.1872 7.0704 11.9691 6.44755 11.5512 6.06285C11.1332 5.65983 10.4245 5.45832 9.40682 5.45832H6.06308C5.77232 5.45832 5.53608 5.69647 5.53608 5.98958V9.78162C5.53608 10.0747 5.77232 10.3129 6.06308 10.3129H9.67941V10.2945ZM10.1701 19.1426C11.115 19.1426 11.8056 18.9411 12.2417 18.5381C12.6779 18.1351 12.8959 17.4206 12.8959 16.4314C12.8959 15.5887 12.6779 14.9659 12.2236 14.5812C11.7692 14.1782 11.0242 13.9767 9.97017 13.9767H6.06308C5.77232 13.9767 5.53608 14.2148 5.53608 14.5079V18.6297C5.53608 18.9228 5.77232 19.161 6.06308 19.161H10.1701V19.1426Z" fill="#1A202C"/>
<path d="M21.5479 11.1918H20.4576C20.1487 11.1918 19.9124 10.9171 19.9488 10.6056L20.2759 7.71123C20.3122 7.45476 20.5303 7.25325 20.7847 7.25325H26.6181C26.9089 7.25325 27.1451 7.4914 27.1451 7.78451V22.4397C27.1451 22.7328 26.9089 22.971 26.6181 22.971H22.602C22.3112 22.971 22.075 22.7328 22.075 22.4397V11.7231C22.075 11.43 21.8387 11.1918 21.5479 11.1918ZM22.184 0.75H26.6544C26.9452 0.75 27.1814 0.988148 27.1814 1.28125V4.24893C27.1814 4.54204 26.9452 4.78019 26.6544 4.78019H22.184C21.8932 4.78019 21.657 4.54204 21.657 4.24893V1.28125C21.657 0.988148 21.8932 0.75 22.184 0.75Z" fill="#1A202C"/>
<path d="M32.4671 21.8169C31.5767 20.846 31.1224 19.472 31.1224 17.6768V11.8147C31.1224 11.5216 30.8861 11.2834 30.5954 11.2834H29.6322C29.3415 11.2834 29.1052 11.0453 29.1052 10.7522V7.76617C29.1052 7.47306 29.3415 7.23492 29.6322 7.23492H30.5954C30.8861 7.23492 31.1224 6.99677 31.1224 6.70367V4.35883C31.1224 4.12068 31.2859 3.91917 31.504 3.8459L35.5201 2.71012C35.8472 2.61852 36.1743 2.87499 36.1743 3.22305V6.70367C36.1743 6.99677 36.4106 7.23492 36.7013 7.23492H39.2455C39.5362 7.23492 39.7907 7.49138 39.7725 7.78449L39.6089 10.7705C39.5908 11.0453 39.3727 11.2651 39.0819 11.2651H36.7013C36.4106 11.2651 36.1743 11.5033 36.1743 11.7964V17.2921C36.1743 18.0431 36.3379 18.5744 36.6832 18.8675C37.0103 19.1606 37.5554 19.3072 38.3187 19.3072C38.7185 19.3072 39.1365 19.2522 39.5363 19.1606C39.8634 19.0873 40.1723 19.3255 40.1723 19.6735V22.2382C40.1723 22.458 40.0451 22.6595 39.827 22.7328C38.9002 23.0809 37.7917 23.2641 36.4833 23.2641C34.7024 23.2824 33.3576 22.7878 32.4671 21.8169Z" fill="#1A202C"/>
<path d="M42.6645 21.7074C41.6832 20.6632 41.2107 19.1244 41.2107 17.1276V7.78492C41.2107 7.49182 41.4469 7.25367 41.7377 7.25367H45.7538C46.0446 7.25367 46.2808 7.49182 46.2808 7.78492V16.8345C46.2808 17.7138 46.4807 18.355 46.8805 18.7763C47.2803 19.1794 47.8981 19.3809 48.7341 19.3809C49.3156 19.3809 49.8789 19.2526 50.4241 18.9962C50.8966 18.7763 51.3146 18.4832 51.6598 18.1352C51.7507 18.0436 51.8052 17.9153 51.8052 17.7688V7.7666C51.8052 7.4735 52.0415 7.23535 52.3322 7.23535H56.3483C56.6391 7.23535 56.8753 7.4735 56.8753 7.7666V22.4218C56.8753 22.7149 56.6391 22.9531 56.3483 22.9531H52.6048C52.3322 22.9531 52.1141 22.7516 52.096 22.4951C52.0596 22.1104 51.6235 21.9089 51.3146 22.1104C50.0425 22.8981 48.5342 23.2828 46.8078 23.2828C45.0087 23.2828 43.6276 22.7516 42.6645 21.7074Z" fill="#1A202C"/>
</svg>
