<svg width="24" height="24" viewBox="0 0 24 24" fill="none" xmlns="http://www.w3.org/2000/svg">
<path fill-rule="evenodd" clip-rule="evenodd" d="M16.4109 2.76862L16.4119 3.51824C19.1665 3.73413 20.9862 5.61119 20.9891 8.48975L21 16.9155C21.0039 20.054 19.0322 21.985 15.8718 21.99L8.15188 22C5.01119 22.004 3.01482 20.027 3.01087 16.8795L3.00001 8.55272C2.99606 5.65517 4.75153 3.78311 7.50617 3.53024L7.50518 2.78061C7.5042 2.34083 7.83001 2.01 8.26444 2.01C8.69886 2.009 9.02468 2.33883 9.02567 2.77861L9.02666 3.47826L14.8914 3.47027L14.8904 2.77062C14.8894 2.33084 15.2152 2.001 15.6496 2C16.0742 1.999 16.4099 2.32884 16.4109 2.76862ZM4.52148 8.86151L19.4696 8.84152V8.4917C19.4272 6.34277 18.349 5.21534 16.4138 5.04742L16.4148 5.81704C16.4148 6.24682 16.0801 6.58765 15.6556 6.58765C15.2212 6.58865 14.8943 6.24882 14.8943 5.81903L14.8934 5.00944L9.02863 5.01744L9.02962 5.82603C9.02962 6.25682 8.70479 6.59664 8.27037 6.59664C7.83594 6.59764 7.50914 6.25881 7.50914 5.82803L7.50815 5.05842C5.58286 5.25132 4.51753 6.38275 4.5205 8.55067L4.52148 8.86151ZM15.24 13.4042V13.4152C15.2499 13.875 15.625 14.2238 16.0802 14.2138C16.5245 14.2028 16.879 13.822 16.8691 13.3622C16.8483 12.9225 16.4919 12.5636 16.0486 12.5646C15.5944 12.5746 15.239 12.9445 15.24 13.4042ZM16.0553 17.892C15.6012 17.882 15.2349 17.5032 15.2339 17.0435C15.224 16.5837 15.5883 16.2029 16.0425 16.1919H16.0524C16.5164 16.1919 16.8926 16.5707 16.8926 17.0405C16.8936 17.5102 16.5184 17.891 16.0553 17.892ZM11.1721 13.4202C11.1918 13.88 11.568 14.2388 12.0221 14.2188C12.4664 14.1979 12.8209 13.818 12.8011 13.3583C12.7903 12.9085 12.425 12.5587 11.9807 12.5597C11.5265 12.5797 11.1711 12.9605 11.1721 13.4202ZM12.0261 17.847C11.5719 17.867 11.1967 17.5081 11.176 17.0484C11.176 16.5886 11.5304 16.2088 11.9846 16.1878C12.4289 16.1868 12.7952 16.5366 12.8051 16.9854C12.8258 17.4462 12.4704 17.826 12.0261 17.847ZM7.10437 13.4552C7.12412 13.9149 7.50029 14.2747 7.95446 14.2538C8.39876 14.2338 8.75321 13.853 8.73247 13.3932C8.7226 12.9434 8.35729 12.5936 7.912 12.5946C7.45783 12.6146 7.10338 12.9954 7.10437 13.4552ZM7.9584 17.8521C7.50423 17.873 7.12904 17.5132 7.10831 17.0535C7.10732 16.5937 7.46276 16.2129 7.91693 16.1929C8.36123 16.1919 8.72752 16.5417 8.7374 16.9915C8.75813 17.4513 8.40368 17.8321 7.9584 17.8521Z" fill="#FF6D03"/>
</svg>
