<svg width="32" height="32" viewBox="0 0 32 32" fill="none" xmlns="http://www.w3.org/2000/svg">
  <rect x="1.5" y="1.5" width="29" height="29" rx="14.5" fill="#DDD7D0" stroke="#F2ECE4" stroke-width="3"/>
  <path fill-rule="evenodd" clip-rule="evenodd" d="M19.6819 12.9307V13.9529C20.8301 14.3113 21.6667 15.3508 21.6667 16.5923V19.8836C21.6667 21.4206 20.3925 22.6667 18.8215 22.6667H13.1792C11.6076 22.6667 10.3334 21.4206 10.3334 19.8836V16.5923C10.3334 15.3508 11.1707 14.3113 12.3182 13.9529V12.9307C12.325 10.9432 13.9712 9.33337 15.9899 9.33337C18.0357 9.33337 19.6819 10.9432 19.6819 12.9307ZM16.0034 10.4927C17.3786 10.4927 18.4964 11.5859 18.4964 12.9307V13.8092H13.5037V12.9175C13.5105 11.5792 14.6283 10.4927 16.0034 10.4927ZM16.5928 18.97C16.5928 19.2946 16.3286 19.553 15.9967 19.553C15.6715 19.553 15.4073 19.2946 15.4073 18.97V17.4993C15.4073 17.1813 15.6715 16.9229 15.9967 16.9229C16.3286 16.9229 16.5928 17.1813 16.5928 17.4993V18.97Z" fill="#A89F96"/>
  </svg>
  