<svg width="34" height="34" viewBox="0 0 34 34" fill="none" xmlns="http://www.w3.org/2000/svg">
  <path fill-rule="evenodd" clip-rule="evenodd" d="M24.8239 10.4777V12.6499C27.2639 13.4115 29.0417 15.6203 29.0417 18.2585V25.2525C29.0417 28.5186 26.334 31.1666 22.9957 31.1666H11.0058C7.66613 31.1666 4.95837 28.5186 4.95837 25.2525V18.2585C4.95837 15.6203 6.73763 13.4115 9.1762 12.6499V10.4777C9.19059 6.25426 12.6886 2.83331 16.9784 2.83331C21.3258 2.83331 24.8239 6.25426 24.8239 10.4777ZM17.0072 5.29696C19.9295 5.29696 22.3047 7.61982 22.3047 10.4777V12.3444H11.6954V10.4495C11.7098 7.60575 14.085 5.29696 17.0072 5.29696ZM18.2596 23.3111C18.2596 24.001 17.6982 24.55 16.9928 24.55C16.3019 24.55 15.7405 24.001 15.7405 23.3111V20.1858C15.7405 19.5101 16.3019 18.961 16.9928 18.961C17.6982 18.961 18.2596 19.5101 18.2596 20.1858V23.3111Z" fill="#A89F96"/>
  </svg>
  