<svg width="20" height="20" viewBox="0 0 20 20" fill="none" xmlns="http://www.w3.org/2000/svg">
<g clip-path="url(#clip0_1_1470)">
<path d="M3.33203 10.0003C3.33203 10.2213 3.41983 10.4333 3.57611 10.5896C3.73239 10.7459 3.94435 10.8337 4.16536 10.8337C4.38638 10.8337 4.59834 10.7459 4.75462 10.5896C4.9109 10.4333 4.9987 10.2213 4.9987 10.0003C4.9987 9.77931 4.9109 9.56735 4.75462 9.41107C4.59834 9.25479 4.38638 9.16699 4.16536 9.16699C3.94435 9.16699 3.73239 9.25479 3.57611 9.41107C3.41983 9.56735 3.33203 9.77931 3.33203 10.0003Z" stroke="#718096" stroke-width="1.5" stroke-linecap="round" stroke-linejoin="round"/>
<path d="M9.16797 10.0003C9.16797 10.2213 9.25577 10.4333 9.41205 10.5896C9.56833 10.7459 9.78029 10.8337 10.0013 10.8337C10.2223 10.8337 10.4343 10.7459 10.5906 10.5896C10.7468 10.4333 10.8346 10.2213 10.8346 10.0003C10.8346 9.77931 10.7468 9.56735 10.5906 9.41107C10.4343 9.25479 10.2223 9.16699 10.0013 9.16699C9.78029 9.16699 9.56833 9.25479 9.41205 9.41107C9.25577 9.56735 9.16797 9.77931 9.16797 10.0003Z" stroke="#718096" stroke-width="1.5" stroke-linecap="round" stroke-linejoin="round"/>
<path d="M15 10.0003C15 10.2213 15.0878 10.4333 15.2441 10.5896C15.4004 10.7459 15.6123 10.8337 15.8333 10.8337C16.0543 10.8337 16.2663 10.7459 16.4226 10.5896C16.5789 10.4333 16.6667 10.2213 16.6667 10.0003C16.6667 9.77931 16.5789 9.56735 16.4226 9.41107C16.2663 9.25479 16.0543 9.16699 15.8333 9.16699C15.6123 9.16699 15.4004 9.25479 15.2441 9.41107C15.0878 9.56735 15 9.77931 15 10.0003Z" stroke="#718096" stroke-width="1.5" stroke-linecap="round" stroke-linejoin="round"/>
</g>
<defs>
<clipPath id="clip0_1_1470">
<rect width="20" height="20" fill="white"/>
</clipPath>
</defs>
</svg>
